<svg width="259" height="40" viewBox="0 0 259 40" fill="none" xmlns="http://www.w3.org/2000/svg">
<path d="M60.6394 19.9061C60.6394 12.9578 65.8282 7.32397 73.33 7.32397C77.8936 7.32397 80.4567 9.07671 82.7698 11.2676L79.5815 14.9609C77.706 13.2708 76.0806 12.2692 73.33 12.2692C69.204 12.2692 66.2658 15.6495 66.2658 19.9061C66.2658 24.1002 69.1415 27.5431 73.33 27.5431C76.0806 27.5431 77.8311 26.4163 79.7065 24.6636L83.0824 28.2942C80.5817 30.9859 77.8311 32.4257 73.1424 32.4257C65.9532 32.4883 60.6394 26.9171 60.6394 19.9061Z" fill="#004545"/>
<path d="M85.2079 19.9061C85.2079 12.9578 90.6467 7.32397 98.1485 7.32397C105.65 7.32397 111.027 12.8952 111.027 19.9061C111.027 26.8545 105.588 32.4883 98.086 32.4883C90.5842 32.4883 85.2079 26.8545 85.2079 19.9061ZM105.463 19.9061C105.463 15.7121 102.4 12.2692 98.086 12.2692C93.7725 12.2692 90.7717 15.6495 90.7717 19.9061C90.7717 24.1002 93.835 27.5431 98.1485 27.5431C102.462 27.5431 105.463 24.1002 105.463 19.9061Z" fill="#004545"/>
<path d="M114.402 19.9061C114.402 12.9578 119.841 7.32397 127.343 7.32397C134.845 7.32397 140.221 12.8952 140.221 19.9061C140.221 26.8545 134.782 32.4883 127.281 32.4883C119.779 32.4883 114.402 26.8545 114.402 19.9061ZM134.657 19.9061C134.657 15.7121 131.594 12.2692 127.281 12.2692C122.967 12.2692 119.966 15.6495 119.966 19.9061C119.966 24.1002 123.03 27.5431 127.343 27.5431C131.657 27.5431 134.657 24.1002 134.657 19.9061Z" fill="#004545"/>
<path d="M144.66 7.69946H154.6C160.414 7.69946 163.914 11.1423 163.914 16.2128C163.914 21.8466 159.538 24.7887 154.1 24.7887H150.036V32.1126H144.66V7.69946ZM154.225 19.9686C156.913 19.9686 158.476 18.3411 158.476 16.2128C158.476 13.834 156.788 12.5195 154.162 12.5195H150.036V19.9686H154.225Z" fill="#004545"/>
<path d="M167.853 7.69946H186.17V12.4569H173.167V17.4021H184.607V22.1596H173.167V27.2926H186.357V32.05H167.853V7.69946Z" fill="#004545"/>
<path d="M191.109 7.69946H202.236C205.3 7.69946 207.738 8.57583 209.301 10.1408C210.676 11.5179 211.364 13.3959 211.364 15.7746C211.364 19.7182 209.238 22.1596 206.175 23.3489L212.114 32.05H205.862L200.611 24.2879H196.485V32.05H191.109V7.69946ZM201.924 19.5304C204.549 19.5304 206.05 18.1533 206.05 16.025C206.05 13.7089 204.424 12.5195 201.861 12.5195H196.547V19.5304H201.924Z" fill="#004545"/>
<path d="M213.614 28.7323L216.99 24.9765C218.365 26.4788 219.741 27.4178 221.428 27.4178C223.429 27.4178 224.679 26.2284 224.679 23.4115V7.69946H230.181V23.5993C230.181 26.4788 229.368 28.6697 227.867 30.1095C226.367 31.6118 224.179 32.363 221.553 32.363C217.803 32.4256 215.302 30.7355 213.614 28.7323Z" fill="#004545"/>
<path d="M243.121 7.51172H248.06L258.5 32.0501H252.936L250.685 26.6041H240.433L238.182 32.0501H232.744L243.121 7.51172ZM248.748 21.8466L245.497 13.9593L242.308 21.8466H248.748Z" fill="#004545"/>
<path d="M19.7543 16.8388L14.2529 26.4163L11.3147 21.3459L8.37651 16.2754H19.4417C19.7543 16.2754 19.9418 16.5884 19.7543 16.8388ZM3.68787 8.20031L6.06345 12.2692H25.6932C26.3184 12.2692 26.6935 12.9577 26.3809 13.4585L16.566 30.4851L18.9416 34.554L32.5074 11.0172C33.2576 9.76526 32.3198 8.20031 30.882 8.20031H3.68787ZM43.385 8.4507C45.5105 4.69484 42.8224 0 38.5088 0H3.68787C1.62487 0 0.312054 2.31612 1.37481 4.13146H35.9457C38.2588 4.13146 39.6966 6.63537 38.5713 8.6385L21.2546 38.6228C22.3174 40.4382 24.943 40.4382 25.9433 38.6228L43.385 8.4507Z" fill="#EAB500"/>
</svg>
