<svg width="387" height="460" viewBox="0 0 387 460" fill="none" xmlns="http://www.w3.org/2000/svg">
<path fill-rule="evenodd" clip-rule="evenodd" d="M233.107 3.44543C221.319 7.87943 214.408 12.2964 205.747 20.9334C193.538 33.1074 185.682 50.8894 185.682 66.3494C185.682 69.7914 185.155 73.0164 184.482 73.6894C183.822 74.3494 181.235 74.8974 178.732 74.9074C160.548 74.9794 126.215 84.4184 106.682 94.7154C45.3259 127.061 8.01792 181.917 0.562923 250.748C-0.924077 264.471 0.666923 292.01 3.78492 306.542C10.5919 338.264 27.4119 371.169 49.0599 395.112C98.8859 450.22 170.662 471.769 243.182 453.393C261.412 448.774 282.082 439.346 300.182 427.395C342.141 399.692 372.415 355.069 382.646 305.845C389.222 274.211 387.155 236.57 377.295 208.389C366.261 176.855 347.49 146.978 326.975 128.297C321.595 123.398 315.879 118.194 314.273 116.732L311.354 114.076L314.742 108.796C323.491 95.1624 327.164 82.0624 326.352 67.3894C324.864 40.5114 310.921 18.4734 288.174 7.04443C277.511 1.68743 267.354 -0.32257 252.79 0.0414301C242.887 0.28943 240.314 0.734429 233.107 3.44543ZM248.182 15.5384C234.604 18.3654 227.004 22.3414 218.09 31.2784C206.871 42.5264 202.751 52.8054 202.706 69.6584C202.667 84.7404 208.033 97.2624 218.96 107.586C240.464 127.901 272.894 127.599 293.718 106.889C323.865 76.9064 309.21 26.2404 267.549 16.4204C261.559 15.0074 252.671 14.6034 248.182 15.5384ZM227.682 139.53C195.92 145.551 166.712 159.392 139.113 181.5C128.069 190.346 120.851 198.042 114.556 207.682C107.842 217.963 102.941 231.695 105.434 233.236C105.97 233.567 111.376 229.011 117.449 223.113C139.155 202.031 163.896 190.902 176.94 196.352C187.421 200.731 189.322 212.229 182.849 232.088C181.182 237.204 177.955 247.464 175.678 254.889C173.401 262.314 169.362 275.364 166.702 283.889C158.208 311.109 149.617 339.173 147.57 346.389C146.478 350.239 143.374 360.161 140.673 368.438C131.049 397.93 130.345 414.025 138.224 424.355C142.881 430.46 149.242 432.87 160.682 432.864C182.915 432.853 207.308 422.668 235.395 401.671C247.669 392.495 250.586 389.983 261.258 379.394C272.751 367.991 280.682 356.985 280.682 352.439C280.682 349.278 280.044 349.592 257.448 363.849C244.998 371.704 236.703 374.889 228.692 374.889C213.887 374.889 212.418 362.852 223.201 329.889C226.324 320.34 236.853 284.657 238.691 277.389C240.401 270.631 258.328 211.875 264.931 191.389C271.636 170.584 272.026 168.864 272.102 159.719C272.197 148.268 270.976 145.845 263.13 141.904C258.636 139.646 256.898 139.401 244.182 139.237C236.482 139.137 229.057 139.269 227.682 139.53Z" fill="black"/>
</svg>
